<mxfile host="app.diagrams.net" agent="Mozilla/5.0 (Windows NT 10.0; Win64; x64) AppleWebKit/537.36 (KHTML, like Gecko) Chrome/135.0.0.0 Safari/537.36" version="26.2.14" pages="2">
  <diagram id="C5RBs43oDa-KdzZeNtuy" name="UML">
    <mxGraphModel dx="1104" dy="508" grid="1" gridSize="10" guides="1" tooltips="1" connect="1" arrows="1" fold="1" page="1" pageScale="1" pageWidth="827" pageHeight="1169" math="0" shadow="0">
      <root>
        <mxCell id="WIyWlLk6GJQsqaUBKTNV-0" />
        <mxCell id="WIyWlLk6GJQsqaUBKTNV-1" parent="WIyWlLk6GJQsqaUBKTNV-0" />
        <mxCell id="3G4DrIbMGPFHeGoIDFCp-0" value="Game" style="swimlane;fontStyle=1;align=center;verticalAlign=top;childLayout=stackLayout;horizontal=1;startSize=26;horizontalStack=0;resizeParent=1;resizeParentMax=0;resizeLast=0;collapsible=1;marginBottom=0;whiteSpace=wrap;html=1;" parent="WIyWlLk6GJQsqaUBKTNV-1" vertex="1">
          <mxGeometry x="50" y="20" width="350" height="220" as="geometry" />
        </mxCell>
        <mxCell id="3G4DrIbMGPFHeGoIDFCp-1" value="&lt;div&gt;- player: Player&lt;/div&gt;&lt;div&gt;- turns: List&amp;lt;Turn&amp;gt;&lt;/div&gt;&lt;div&gt;&lt;span style=&quot;background-color: transparent; color: light-dark(rgb(0, 0, 0), rgb(255, 255, 255));&quot;&gt;- dealer: Dealer&lt;/span&gt;&lt;/div&gt;&lt;div&gt;&lt;span style=&quot;background-color: transparent; color: light-dark(rgb(0, 0, 0), rgb(255, 255, 255));&quot;&gt;- date&lt;/span&gt;&lt;/div&gt;" style="text;strokeColor=none;fillColor=none;align=left;verticalAlign=top;spacingLeft=4;spacingRight=4;overflow=hidden;rotatable=0;points=[[0,0.5],[1,0.5]];portConstraint=eastwest;whiteSpace=wrap;html=1;" parent="3G4DrIbMGPFHeGoIDFCp-0" vertex="1">
          <mxGeometry y="26" width="350" height="164" as="geometry" />
        </mxCell>
        <mxCell id="3G4DrIbMGPFHeGoIDFCp-2" value="" style="line;strokeWidth=1;fillColor=none;align=left;verticalAlign=middle;spacingTop=-1;spacingLeft=3;spacingRight=3;rotatable=0;labelPosition=right;points=[];portConstraint=eastwest;strokeColor=inherit;" parent="3G4DrIbMGPFHeGoIDFCp-0" vertex="1">
          <mxGeometry y="190" width="350" height="8" as="geometry" />
        </mxCell>
        <mxCell id="3G4DrIbMGPFHeGoIDFCp-3" value=":" style="text;strokeColor=none;fillColor=none;align=left;verticalAlign=top;spacingLeft=4;spacingRight=4;overflow=hidden;rotatable=0;points=[[0,0.5],[1,0.5]];portConstraint=eastwest;whiteSpace=wrap;html=1;" parent="3G4DrIbMGPFHeGoIDFCp-0" vertex="1">
          <mxGeometry y="198" width="350" height="22" as="geometry" />
        </mxCell>
        <mxCell id="3G4DrIbMGPFHeGoIDFCp-8" value="Turn&lt;span style=&quot;white-space: pre;&quot;&gt;&#x9;&lt;/span&gt;" style="swimlane;fontStyle=0;childLayout=stackLayout;horizontal=1;startSize=26;fillColor=none;horizontalStack=0;resizeParent=1;resizeParentMax=0;resizeLast=0;collapsible=1;marginBottom=0;whiteSpace=wrap;html=1;" parent="WIyWlLk6GJQsqaUBKTNV-1" vertex="1">
          <mxGeometry x="790" y="20" width="320" height="66" as="geometry" />
        </mxCell>
        <mxCell id="3G4DrIbMGPFHeGoIDFCp-16" value="- List&amp;lt;PlayerTurn&amp;gt;&lt;div&gt;- DealerHand&#39;s: Hand&lt;/div&gt;" style="text;html=1;align=center;verticalAlign=middle;resizable=0;points=[];autosize=1;strokeColor=none;fillColor=none;" parent="3G4DrIbMGPFHeGoIDFCp-8" vertex="1">
          <mxGeometry y="26" width="320" height="40" as="geometry" />
        </mxCell>
        <mxCell id="3G4DrIbMGPFHeGoIDFCp-12" value="PlayerTurn" style="swimlane;fontStyle=0;childLayout=stackLayout;horizontal=1;startSize=26;fillColor=none;horizontalStack=0;resizeParent=1;resizeParentMax=0;resizeLast=0;collapsible=1;marginBottom=0;whiteSpace=wrap;html=1;" parent="WIyWlLk6GJQsqaUBKTNV-1" vertex="1">
          <mxGeometry x="790" y="100" width="320" height="150" as="geometry" />
        </mxCell>
        <mxCell id="3G4DrIbMGPFHeGoIDFCp-13" value="- bet:&amp;nbsp;" style="text;strokeColor=none;fillColor=none;align=left;verticalAlign=top;spacingLeft=4;spacingRight=4;overflow=hidden;rotatable=0;points=[[0,0.5],[1,0.5]];portConstraint=eastwest;whiteSpace=wrap;html=1;" parent="3G4DrIbMGPFHeGoIDFCp-12" vertex="1">
          <mxGeometry y="26" width="320" height="26" as="geometry" />
        </mxCell>
        <mxCell id="3G4DrIbMGPFHeGoIDFCp-14" value="- actions:&amp;nbsp;" style="text;strokeColor=none;fillColor=none;align=left;verticalAlign=top;spacingLeft=4;spacingRight=4;overflow=hidden;rotatable=0;points=[[0,0.5],[1,0.5]];portConstraint=eastwest;whiteSpace=wrap;html=1;" parent="3G4DrIbMGPFHeGoIDFCp-12" vertex="1">
          <mxGeometry y="52" width="320" height="26" as="geometry" />
        </mxCell>
        <mxCell id="3G4DrIbMGPFHeGoIDFCp-15" value="- result:&amp;nbsp;&lt;div&gt;- player&#39;s Hand: Hand&lt;/div&gt;" style="text;strokeColor=none;fillColor=none;align=left;verticalAlign=top;spacingLeft=4;spacingRight=4;overflow=hidden;rotatable=0;points=[[0,0.5],[1,0.5]];portConstraint=eastwest;whiteSpace=wrap;html=1;" parent="3G4DrIbMGPFHeGoIDFCp-12" vertex="1">
          <mxGeometry y="78" width="320" height="72" as="geometry" />
        </mxCell>
        <mxCell id="3G4DrIbMGPFHeGoIDFCp-22" value="Player" style="swimlane;fontStyle=1;align=center;verticalAlign=top;childLayout=stackLayout;horizontal=1;startSize=26;horizontalStack=0;resizeParent=1;resizeParentMax=0;resizeLast=0;collapsible=1;marginBottom=0;whiteSpace=wrap;html=1;" parent="WIyWlLk6GJQsqaUBKTNV-1" vertex="1">
          <mxGeometry x="80" y="790" width="350" height="250" as="geometry" />
        </mxCell>
        <mxCell id="3G4DrIbMGPFHeGoIDFCp-23" value="- name: String&lt;div&gt;&lt;br&gt;&lt;div&gt;- costumer_id: fk_NULLABLE&lt;/div&gt;&lt;div&gt;&lt;br&gt;&lt;/div&gt;&lt;div&gt;- id: int&lt;/div&gt;&lt;/div&gt;&lt;div&gt;&lt;br&gt;&lt;/div&gt;&lt;div&gt;- game_id: string&lt;/div&gt;" style="text;strokeColor=none;fillColor=none;align=left;verticalAlign=top;spacingLeft=4;spacingRight=4;overflow=hidden;rotatable=0;points=[[0,0.5],[1,0.5]];portConstraint=eastwest;whiteSpace=wrap;html=1;" parent="3G4DrIbMGPFHeGoIDFCp-22" vertex="1">
          <mxGeometry y="26" width="350" height="114" as="geometry" />
        </mxCell>
        <mxCell id="3G4DrIbMGPFHeGoIDFCp-24" value="" style="line;strokeWidth=1;fillColor=none;align=left;verticalAlign=middle;spacingTop=-1;spacingLeft=3;spacingRight=3;rotatable=0;labelPosition=right;points=[];portConstraint=eastwest;strokeColor=inherit;" parent="3G4DrIbMGPFHeGoIDFCp-22" vertex="1">
          <mxGeometry y="140" width="350" height="8" as="geometry" />
        </mxCell>
        <mxCell id="3G4DrIbMGPFHeGoIDFCp-25" value="- bet&lt;div&gt;- pickAction&lt;/div&gt;&lt;div&gt;&lt;br&gt;&lt;/div&gt;" style="text;strokeColor=none;fillColor=none;align=left;verticalAlign=top;spacingLeft=4;spacingRight=4;overflow=hidden;rotatable=0;points=[[0,0.5],[1,0.5]];portConstraint=eastwest;whiteSpace=wrap;html=1;" parent="3G4DrIbMGPFHeGoIDFCp-22" vertex="1">
          <mxGeometry y="148" width="350" height="102" as="geometry" />
        </mxCell>
        <mxCell id="3G4DrIbMGPFHeGoIDFCp-27" value="Dealer" style="swimlane;fontStyle=1;align=center;verticalAlign=top;childLayout=stackLayout;horizontal=1;startSize=26;horizontalStack=0;resizeParent=1;resizeParentMax=0;resizeLast=0;collapsible=1;marginBottom=0;whiteSpace=wrap;html=1;" parent="WIyWlLk6GJQsqaUBKTNV-1" vertex="1">
          <mxGeometry x="50" y="300" width="350" height="250" as="geometry" />
        </mxCell>
        <mxCell id="3G4DrIbMGPFHeGoIDFCp-28" value="- game: Game&lt;div&gt;- deck: CardDistribution&lt;/div&gt;" style="text;strokeColor=none;fillColor=none;align=left;verticalAlign=top;spacingLeft=4;spacingRight=4;overflow=hidden;rotatable=0;points=[[0,0.5],[1,0.5]];portConstraint=eastwest;whiteSpace=wrap;html=1;" parent="3G4DrIbMGPFHeGoIDFCp-27" vertex="1">
          <mxGeometry y="26" width="350" height="114" as="geometry" />
        </mxCell>
        <mxCell id="3G4DrIbMGPFHeGoIDFCp-29" value="" style="line;strokeWidth=1;fillColor=none;align=left;verticalAlign=middle;spacingTop=-1;spacingLeft=3;spacingRight=3;rotatable=0;labelPosition=right;points=[];portConstraint=eastwest;strokeColor=inherit;" parent="3G4DrIbMGPFHeGoIDFCp-27" vertex="1">
          <mxGeometry y="140" width="350" height="8" as="geometry" />
        </mxCell>
        <mxCell id="3G4DrIbMGPFHeGoIDFCp-30" value="&lt;div&gt;- playTurn: (1) takeBets, (2) distributeCards, (3) invitePlayers,(4) solveDealerHand, (5) saveResult&amp;nbsp;&lt;/div&gt;" style="text;strokeColor=none;fillColor=none;align=left;verticalAlign=top;spacingLeft=4;spacingRight=4;overflow=hidden;rotatable=0;points=[[0,0.5],[1,0.5]];portConstraint=eastwest;whiteSpace=wrap;html=1;" parent="3G4DrIbMGPFHeGoIDFCp-27" vertex="1">
          <mxGeometry y="148" width="350" height="102" as="geometry" />
        </mxCell>
        <mxCell id="3G4DrIbMGPFHeGoIDFCp-31" value="Hand" style="swimlane;fontStyle=0;childLayout=stackLayout;horizontal=1;startSize=26;fillColor=none;horizontalStack=0;resizeParent=1;resizeParentMax=0;resizeLast=0;collapsible=1;marginBottom=0;whiteSpace=wrap;html=1;" parent="WIyWlLk6GJQsqaUBKTNV-1" vertex="1">
          <mxGeometry x="790" y="300" width="320" height="56" as="geometry" />
        </mxCell>
        <mxCell id="3G4DrIbMGPFHeGoIDFCp-32" value="- List&amp;lt;Card&amp;gt;" style="text;html=1;align=center;verticalAlign=middle;resizable=0;points=[];autosize=1;strokeColor=none;fillColor=none;" parent="3G4DrIbMGPFHeGoIDFCp-31" vertex="1">
          <mxGeometry y="26" width="320" height="30" as="geometry" />
        </mxCell>
        <mxCell id="3G4DrIbMGPFHeGoIDFCp-33" value="CardDistribution" style="swimlane;fontStyle=0;childLayout=stackLayout;horizontal=1;startSize=26;fillColor=none;horizontalStack=0;resizeParent=1;resizeParentMax=0;resizeLast=0;collapsible=1;marginBottom=0;whiteSpace=wrap;html=1;" parent="WIyWlLk6GJQsqaUBKTNV-1" vertex="1">
          <mxGeometry x="430" y="300" width="350" height="86" as="geometry" />
        </mxCell>
        <mxCell id="3G4DrIbMGPFHeGoIDFCp-34" value="fulldeck: List&amp;lt;Card&amp;gt;&lt;div&gt;reserve: List&amp;lt;Card&amp;gt;&lt;/div&gt;&lt;div&gt;hands: List&amp;lt;Hands&amp;gt;&lt;/div&gt;" style="text;html=1;align=center;verticalAlign=middle;resizable=0;points=[];autosize=1;strokeColor=none;fillColor=none;" parent="3G4DrIbMGPFHeGoIDFCp-33" vertex="1">
          <mxGeometry y="26" width="350" height="60" as="geometry" />
        </mxCell>
        <mxCell id="3G4DrIbMGPFHeGoIDFCp-43" value="GameService" style="html=1;whiteSpace=wrap;" parent="WIyWlLk6GJQsqaUBKTNV-1" vertex="1">
          <mxGeometry x="370" y="560" width="180" height="85" as="geometry" />
        </mxCell>
        <mxCell id="3G4DrIbMGPFHeGoIDFCp-48" value="UserService" style="html=1;whiteSpace=wrap;" parent="WIyWlLk6GJQsqaUBKTNV-1" vertex="1">
          <mxGeometry x="370" y="660" width="180" height="85" as="geometry" />
        </mxCell>
      </root>
    </mxGraphModel>
  </diagram>
  <diagram id="YB8mg8M2vG9r_bo1I5oF" name="EndPoints">
    <mxGraphModel dx="2279" dy="1879" grid="1" gridSize="10" guides="1" tooltips="1" connect="1" arrows="1" fold="1" page="1" pageScale="1" pageWidth="827" pageHeight="1169" math="0" shadow="0">
      <root>
        <mxCell id="0" />
        <mxCell id="1" parent="0" />
        <mxCell id="A-w8SP_1EWqdjkVr_bA9-1" value="&amp;nbsp;+ create Game // OneGame/OnePlayer: MongoDB &amp;amp; MySql&lt;div&gt;+ get Game&lt;/div&gt;&lt;div&gt;+ place bet in a game&lt;/div&gt;&lt;div&gt;+ pick action in a game&lt;/div&gt;&lt;div&gt;+ delete game&lt;/div&gt;&lt;div&gt;+ change player in game&lt;/div&gt;&lt;div&gt;+ get ranking&lt;br&gt;&lt;div&gt;&lt;br&gt;&lt;/div&gt;&lt;/div&gt;" style="text;html=1;align=center;verticalAlign=middle;whiteSpace=wrap;rounded=0;" parent="1" vertex="1">
          <mxGeometry x="-680" y="-790" width="580" height="250" as="geometry" />
        </mxCell>
      </root>
    </mxGraphModel>
  </diagram>
</mxfile>
